<?xml version="1.0" encoding="UTF-8" standalone="no"?>
<!-- Created with Inkscape (http://www.inkscape.org/) -->

<svg
   xmlns:dc="http://purl.org/dc/elements/1.1/"
   xmlns:cc="http://creativecommons.org/ns#"
   xmlns:rdf="http://www.w3.org/1999/02/22-rdf-syntax-ns#"
   xmlns:svg="http://www.w3.org/2000/svg"
   xmlns="http://www.w3.org/2000/svg"
   xmlns:sodipodi="http://sodipodi.sourceforge.net/DTD/sodipodi-0.dtd"
   xmlns:inkscape="http://www.inkscape.org/namespaces/inkscape"
   version="1.1"
   width="1024"
   height="1024"
   viewBox="0 0 1024 1024"
   id="svg2"
   xml:space="preserve"
   inkscape:version="0.48.2 r9819"
   sodipodi:docname="favicon-new.svg.2014_01_27_14_00_40.0.svg"
   inkscape:export-filename="/Users/thomashoffmann/Documents/ide/icons/icon_32x32@2x.png"
   inkscape:export-xdpi="143.4375"
   inkscape:export-ydpi="143.4375"><sodipodi:namedview
   pagecolor="#ffffff"
   bordercolor="#666666"
   borderopacity="1"
   objecttolerance="10"
   gridtolerance="10"
   guidetolerance="10"
   inkscape:pageopacity="0"
   inkscape:pageshadow="2"
   inkscape:window-width="1306"
   inkscape:window-height="924"
   id="namedview3045"
   showgrid="false"
   inkscape:zoom="0.3618398"
   inkscape:cx="-474.37319"
   inkscape:cy="307.73747"
   inkscape:window-x="1577"
   inkscape:window-y="19"
   inkscape:window-maximized="0"
   inkscape:current-layer="svg2" /><metadata
   id="metadata24"><rdf:RDF><cc:Work
       rdf:about=""><dc:format>image/svg+xml</dc:format><dc:type
         rdf:resource="http://purl.org/dc/dcmitype/StillImage" /><dc:title /></cc:Work></rdf:RDF></metadata><defs
   id="defs22">
	

		
		
		
		
		
		
	<filter
   id="filter3821"
   y="-0.25"
   height="1.5"
   inkscape:menu-tooltip="Darkens the edge with an inner blur and adds a flexible glow"
   inkscape:menu="Shadows and Glows"
   inkscape:label="Dark and Glow"
   color-interpolation-filters="sRGB"><feGaussianBlur
     id="feGaussianBlur3823"
     stdDeviation="5"
     result="result6" /><feComposite
     id="feComposite3825"
     in2="result6"
     result="result8"
     in="SourceGraphic"
     operator="atop" /><feComposite
     id="feComposite3827"
     in2="SourceAlpha"
     result="result9"
     operator="over"
     in="result8" /><feColorMatrix
     id="feColorMatrix3829"
     values="1 0 0 0 0 0 1 0 0 0 0 0 1 0 0 0 0 0 1 0 "
     result="result10" /><feBlend
     id="feBlend3831"
     in2="result6"
     in="result10"
     mode="normal" /></filter><filter
   inkscape:collect="always"
   id="filter3849"
   x="-0.05797245"
   width="1.1159449"
   y="-0.12039514"
   height="1.2407902"
   color-interpolation-filters="sRGB"><feGaussianBlur
     inkscape:collect="always"
     stdDeviation="0.47056521"
     id="feGaussianBlur3851" /></filter></defs>
<g
   id="Layer_1"
   transform="translate(0,992)">
</g>
<path
   d="M 676.98046,447.51823 858.43289,139.39027 C 767.40377,54.642324 646.33984,1.778483 512.07589,1.778483 c -31.82034,0 -62.65226,3.7942081 -92.84651,9.342042 L 676.98046,447.51823 z"
   id="path8"
   style="fill:#0000ff;stroke:#000000;stroke-width:3.18841028;stroke-miterlimit:4;stroke-opacity:1;stroke-dasharray:none"
   inkscape:connector-curvature="0" /><path
   d="m 638.04997,639.46052 h 366.09323 c 10.6174,-40.97107 18.0783,-83.18562 18.0783,-127.53641 0,-123.48712 -45.59425,-235.20902 -118.70449,-323.46421 L 638.04997,639.46052 z"
   id="path10"
   style="fill:#ffff00;stroke:#000000;stroke-width:3.18841028;stroke-miterlimit:4;stroke-opacity:1;stroke-dasharray:none"
   inkscape:connector-curvature="0" /><path
   d="M 528.01794,320.6195 355.58871,28.816201 C 212.11026,75.335106 96.084009,181.79612 39.808569,320.6195 H 528.01794 z"
   id="path12"
   style="fill:#008000;stroke:#000000;stroke-width:3.18841028;stroke-miterlimit:4;stroke-opacity:1;stroke-dasharray:none"
   inkscape:connector-curvature="0" /><path
   d="M 500.37442,703.22872 672.26161,993.91608 C 814.11398,946.60007 928.57791,840.84051 984.37509,703.22872 H 500.37442 z"
   id="path14"
   style="fill:#ff0000;stroke:#000000;stroke-width:3.18841028;stroke-miterlimit:4;stroke-opacity:1;stroke-dasharray:none"
   inkscape:connector-curvature="0" /><path
   d="M 387.88731,384.38771 H 19.976658 c -10.64929,40.97107 -18.0464016,83.18562 -18.0464016,127.5364 0,124.06104 46.0725276,236.2612 119.7566836,324.83523 L 387.88731,384.38771 z"
   id="path16"
   style="fill:#2b0000;stroke:#000000;stroke-width:3.18841028;stroke-miterlimit:4;stroke-opacity:1;stroke-dasharray:none"
   inkscape:connector-curvature="0" /><path
   d="M 350.04088,574.44884 166.8986,885.5739 c 90.96534,83.95084 211.55102,136.4958 345.17729,136.4958 33.19135,0 65.52183,-3.7304 96.95955,-9.7246 L 350.04088,574.44884 z"
   id="path18"
   style="fill:#808000;stroke:#000000;stroke-width:3.18841028;stroke-miterlimit:4;stroke-opacity:1;stroke-dasharray:none"
   inkscape:connector-curvature="0" />
<rect
   style="opacity:0.36792453;fill:#0000ff;fill-opacity:1;stroke:#000000;stroke-width:0.09247459;stroke-miterlimit:4;stroke-opacity:1;stroke-dasharray:none"
   id="rect3003"
   width="594.18561"
   height="259.96872"
   x="378.62061"
   y="684.02405" /><g
   style="font-size:189.24508667px;font-style:normal;font-weight:normal;line-height:125%;letter-spacing:0px;word-spacing:0px;fill:#ffffff;fill-opacity:1;stroke:#000000;stroke-width:3.18841028;stroke-miterlimit:4;stroke-opacity:1;font-family:Sans"
   id="text3049"><path
     d="m 473.50866,890.69339 0,13.3063 -5.7291,0 c -15.33928,-3e-5 -25.62701,-2.27935 -30.86321,-6.83796 -5.17473,-4.55866 -7.76206,-13.64512 -7.76201,-27.25942 l 0,-22.08476 c -5e-5,-9.30205 -1.66334,-15.73958 -4.98986,-19.31261 -3.32662,-3.57294 -9.36373,-5.35943 -18.11135,-5.35948 l -5.63669,0 0,-13.21389 5.63669,0 c 8.80923,7e-5 14.84634,-1.75562 18.11135,-5.26707 3.32652,-3.57292 4.98981,-9.94884 4.98986,-19.1278 l 0,-22.17716 c -5e-5,-13.61419 2.58728,-22.66985 7.76201,-27.16702 5.2362,-4.5585 15.52393,-6.83781 30.86321,-6.83796 l 5.7291,0 0,13.21389 -6.28353,0 c -8.68614,1.3e-4 -14.35363,1.3554 -17.00249,4.06582 -2.64901,2.71066 -3.97348,8.40895 -3.97341,17.09489 l 0,22.9164 c -7e-5,9.67178 -1.41694,16.69454 -4.25062,21.0683 -2.77221,4.37389 -7.54645,7.33084 -14.32275,8.87086 6.8379,1.66334 11.64295,4.6819 14.41516,9.05567 2.77207,4.37387 4.15814,11.36583 4.15821,20.9759 l 0,22.9164 c -7e-5,8.68605 1.3244,14.38434 3.97341,17.09489 2.64886,2.71052 8.31635,4.06579 17.00249,4.06581 l 6.28353,0"
     style=""
     id="path3000" /><path
     d="m 583.19319,785.35189 0,-55.99733 17.00249,0 0,143.78191 -17.00249,0 0,-15.52401 c -3.57307,6.16033 -8.1009,10.74977 -13.58351,13.76832 -5.42115,2.95696 -11.95109,4.43543 -19.58982,4.43543 -12.5055,0 -22.70082,-4.98985 -30.586,-14.96958 -7.82363,-9.9797 -11.73543,-23.10117 -11.73542,-39.36445 -1e-5,-16.26319 3.91179,-29.38466 11.73542,-39.36446 7.88518,-9.97962 18.0805,-14.96948 30.586,-14.96958 7.63873,10e-5 14.16867,1.50938 19.58982,4.52783 5.48261,2.95706 10.01044,7.51569 13.58351,13.67592 m -57.93783,36.13029 c -3e-5,12.50549 2.5565,22.33119 7.6696,29.47714 5.17463,7.08438 12.25899,10.62656 21.25311,10.62655 8.99401,10e-6 16.07837,-3.54217 21.25311,-10.62655 5.17459,-7.14595 7.76192,-16.97165 7.76201,-29.47714 -9e-5,-12.50539 -2.58742,-22.3003 -7.76201,-29.38474 -5.17474,-7.14588 -12.2591,-10.71887 -21.25311,-10.71896 -8.99412,9e-5 -16.07848,3.57308 -21.25311,10.71896 -5.1131,7.08444 -7.66963,16.87935 -7.6696,29.38474"
     style=""
     id="path3002" /><path
     d="m 723.74092,817.13915 0,8.31643 -78.17448,0 c 0.73921,11.70465 4.25059,20.63711 10.53415,26.7974 6.34508,6.09874 15.15434,9.14809 26.42778,9.14808 6.52987,10e-6 12.84419,-0.80083 18.94299,-2.40252 6.16023,-1.60167 12.25894,-4.0042 18.29615,-7.20758 l 0,16.07844 c -6.09881,2.58734 -12.35153,4.55864 -18.75818,5.91391 -6.40681,1.35527 -12.90594,2.0329 -19.49741,2.0329 -16.50971,0 -29.60039,-4.80504 -39.27206,-14.41515 -9.61011,-9.61008 -14.41516,-22.60835 -14.41515,-38.99484 -10e-6,-16.94081 4.55862,-30.3703 13.67592,-40.2885 9.17884,-9.97962 21.53027,-14.96948 37.05433,-14.96958 13.92225,10e-5 24.91842,4.49713 32.98852,13.4911 8.13153,8.93255 12.19734,21.09918 12.19744,36.49991 m -17.00249,-4.98986 c -0.12329,-9.30202 -2.74143,-16.7252 -7.85441,-22.26956 -5.05154,-5.54421 -11.76628,-8.31635 -20.14425,-8.31644 -9.48695,9e-5 -17.09494,2.67983 -22.82399,8.03922 -5.66753,5.35956 -8.9325,12.90595 -9.79491,22.63918 l 60.61756,-0.0924"
     style=""
     id="path3004" /><path
     d="m 739.44974,769.64307 18.01895,0 32.34168,86.86054 32.34169,-86.86054 18.01895,0 -38.81003,103.4934 -23.10121,0 -38.81003,-103.4934"
     style=""
     id="path3006" /><path
     d="m 869.46334,890.69339 6.46834,0 c 8.62441,-2e-5 14.2303,-1.32448 16.81768,-3.97341 2.64889,-2.64895 3.97336,-8.37804 3.97341,-17.18729 l 0,-22.9164 c -5e-5,-9.61007 1.38602,-16.60203 4.15822,-20.9759 2.77208,-4.37377 7.57713,-7.39233 14.41515,-9.05567 -6.83802,-1.54002 -11.64307,-4.49697 -14.41515,-8.87086 -2.7722,-4.37376 -4.15827,-11.39652 -4.15822,-21.0683 l 0,-22.9164 c -5e-5,-8.74754 -1.32452,-14.44583 -3.97341,-17.09489 -2.58738,-2.71042 -8.19327,-4.06569 -16.81768,-4.06582 l -6.46834,0 0,-13.21389 5.82151,0 c 15.33916,1.5e-4 25.56528,2.27946 30.6784,6.83796 5.17461,4.49717 7.76194,13.55283 7.76201,27.16702 l 0,22.17716 c -7e-5,9.17896 1.66321,15.55488 4.98986,19.1278 3.3265,3.51145 9.3636,5.26714 18.11134,5.26707 l 5.7291,0 0,13.21389 -5.7291,0 c -8.74774,5e-5 -14.78484,1.78654 -18.11134,5.35948 -3.32665,3.57303 -4.98993,10.01056 -4.98986,19.31261 l 0,22.08476 c -7e-5,13.6143 -2.5874,22.70076 -7.76201,27.25942 -5.11312,4.55861 -15.33924,6.83793 -30.6784,6.83796 l -5.82151,0 0,-13.3063"
     style=""
     id="path3008" /></g>
</svg>