<?xml version="1.0" encoding="UTF-8" standalone="no"?>
<!-- Created with Inkscape (http://www.inkscape.org/) -->

<svg
   xmlns:dc="http://purl.org/dc/elements/1.1/"
   xmlns:cc="http://creativecommons.org/ns#"
   xmlns:rdf="http://www.w3.org/1999/02/22-rdf-syntax-ns#"
   xmlns:svg="http://www.w3.org/2000/svg"
   xmlns="http://www.w3.org/2000/svg"
   xmlns:sodipodi="http://sodipodi.sourceforge.net/DTD/sodipodi-0.dtd"
   xmlns:inkscape="http://www.inkscape.org/namespaces/inkscape"
   version="1.1"
   width="32"
   height="32"
   viewBox="0 0 32 32"
   id="svg2"
   xml:space="preserve"
   inkscape:version="0.48.2 r9819"
   sodipodi:docname="favicon.svg"><sodipodi:namedview
   pagecolor="#ffffff"
   bordercolor="#666666"
   borderopacity="1"
   objecttolerance="10"
   gridtolerance="10"
   guidetolerance="10"
   inkscape:pageopacity="0"
   inkscape:pageshadow="2"
   inkscape:window-width="1306"
   inkscape:window-height="924"
   id="namedview3045"
   showgrid="false"
   inkscape:zoom="5.7894368"
   inkscape:cx="24.939331"
   inkscape:cy="-5.77222"
   inkscape:window-x="1621"
   inkscape:window-y="46"
   inkscape:window-maximized="0"
   inkscape:current-layer="svg2" /><metadata
   id="metadata24"><rdf:RDF><cc:Work
       rdf:about=""><dc:format>image/svg+xml</dc:format><dc:type
         rdf:resource="http://purl.org/dc/dcmitype/StillImage" /><dc:title></dc:title></cc:Work></rdf:RDF></metadata><defs
   id="defs22">
	

		
		
		
		
		
		
	<filter
   id="filter3821"
   y="-0.25"
   height="1.5"
   inkscape:menu-tooltip="Darkens the edge with an inner blur and adds a flexible glow"
   inkscape:menu="Shadows and Glows"
   inkscape:label="Dark and Glow"
   color-interpolation-filters="sRGB"><feGaussianBlur
     id="feGaussianBlur3823"
     stdDeviation="5"
     result="result6" /><feComposite
     id="feComposite3825"
     in2="result6"
     result="result8"
     in="SourceGraphic"
     operator="atop" /><feComposite
     id="feComposite3827"
     in2="SourceAlpha"
     result="result9"
     operator="over"
     in="result8" /><feColorMatrix
     id="feColorMatrix3829"
     values="1 0 0 0 0 0 1 0 0 0 0 0 1 0 0 0 0 0 1 0 "
     result="result10" /><feBlend
     id="feBlend3831"
     in2="result6"
     in="result10"
     mode="normal" /></filter><filter
   inkscape:collect="always"
   id="filter3849"
   x="-0.057972451"
   width="1.1159449"
   y="-0.12039514"
   height="1.2407903"><feGaussianBlur
     inkscape:collect="always"
     stdDeviation="0.47056521"
     id="feGaussianBlur3851" /></filter></defs>
<g
   id="Layer_1">
</g>
<path
   d="M 21.172,13.98 26.863,4.316 C 24.008,1.658 20.211,0 16,0 15.002,0 14.035,0.119 13.088,0.293 l 8.084,13.687 z"
   id="path8"
   style="fill:#0000ff" /><path
   d="M 19.951,20 H 31.433 C 31.766,18.715 32,17.391 32,16 32,12.127 30.57,8.623 28.277,5.855 L 19.951,20 z"
   id="path10"
   style="fill:#ffff00" /><path
   d="M 16.5,10 11.092,0.848 C 6.592,2.307 2.953,5.646 1.188,10 H 16.5 z"
   id="path12"
   style="fill:#008000" /><path
   d="m 15.633,22 5.391,9.117 C 25.473,29.633 29.063,26.316 30.813,22 h -15.18 z"
   id="path14"
   style="fill:#ff0000" /><path
   d="M 12.105,12 H 0.566 C 0.232,13.285 0,14.609 0,16 0,19.891 1.445,23.41 3.756,26.188 L 12.105,12 z"
   id="path16"
   style="fill:#2b0000" /><path
   d="M 10.918,17.961 5.174,27.719 C 8.027,30.352 11.809,32 16,32 c 1.041,0 2.055,-0.117 3.041,-0.305 L 10.918,17.961 z"
   id="path18"
   style="fill:#808000" />
<rect
   style="opacity:0.20125786;fill:#000000;fill-opacity:1;stroke:#000000;stroke-width:0.69720125;stroke-miterlimit:4;stroke-opacity:1;stroke-dasharray:none;filter:url(#filter3849)"
   id="rect3047"
   width="19.480917"
   height="9.3804159"
   x="10.971412"
   y="20.562931" /><text
   xml:space="preserve"
   style="font-size:5.93540573000000027px;font-style:normal;font-weight:normal;line-height:125%;letter-spacing:0px;word-spacing:0px;fill:#ffffff;fill-opacity:1;stroke:#000000;font-family:Sans;stroke-opacity:1;opacity:1;stroke-width:0.1;stroke-miterlimit:4;stroke-dasharray:none"
   x="11.756033"
   y="27.328836"
   id="text3049"
   sodipodi:linespacing="125%"><tspan
     sodipodi:role="line"
     id="tspan3051"
     x="11.756033"
     y="27.328836">{dev}</tspan></text>
</svg>