<?xml version="1.0" encoding="UTF-8" standalone="no"?>
<!-- Created with Inkscape (http://www.inkscape.org/) -->

<svg
   xmlns:dc="http://purl.org/dc/elements/1.1/"
   xmlns:cc="http://creativecommons.org/ns#"
   xmlns:rdf="http://www.w3.org/1999/02/22-rdf-syntax-ns#"
   xmlns:svg="http://www.w3.org/2000/svg"
   xmlns="http://www.w3.org/2000/svg"
   version="1.1"
   width="32"
   height="32"
   viewBox="0 0 32 32"
   id="svg2"
   xml:space="preserve"><metadata
   id="metadata24"><rdf:RDF><cc:Work
       rdf:about=""><dc:format>image/svg+xml</dc:format><dc:type
         rdf:resource="http://purl.org/dc/dcmitype/StillImage" /><dc:title></dc:title></cc:Work></rdf:RDF></metadata><defs
   id="defs22">
	

		
		
		
		
		
		
	</defs>
<g
   id="Layer_1">
</g>
<path
   d="M 21.172,13.98 26.863,4.316 C 24.008,1.658 20.211,0 16,0 15.002,0 14.035,0.119 13.088,0.293 l 8.084,13.687 z"
   id="path8"
   style="fill:#0000ff" /><path
   d="M 19.951,20 H 31.433 C 31.766,18.715 32,17.391 32,16 32,12.127 30.57,8.623 28.277,5.855 L 19.951,20 z"
   id="path10"
   style="fill:#ffff00" /><path
   d="M 16.5,10 11.092,0.848 C 6.592,2.307 2.953,5.646 1.188,10 H 16.5 z"
   id="path12"
   style="fill:#008000" /><path
   d="m 15.633,22 5.391,9.117 C 25.473,29.633 29.063,26.316 30.813,22 h -15.18 z"
   id="path14"
   style="fill:#ff0000" /><path
   d="M 12.105,12 H 0.566 C 0.232,13.285 0,14.609 0,16 0,19.891 1.445,23.41 3.756,26.188 L 12.105,12 z"
   id="path16"
   style="fill:#2b0000" /><path
   d="M 10.918,17.961 5.174,27.719 C 8.027,30.352 11.809,32 16,32 c 1.041,0 2.055,-0.117 3.041,-0.305 L 10.918,17.961 z"
   id="path18"
   style="fill:#808000" />
</svg>